<?xml version="1.0" standalone="no"?>
<!DOCTYPE svg PUBLIC "-//W3C//DTD SVG 20010904//EN"
 "http://www.w3.org/TR/2001/REC-SVG-20010904/DTD/svg10.dtd">
<svg version="1.0" xmlns="http://www.w3.org/2000/svg"
 width="225.000000pt" height="225.000000pt" viewBox="0 0 225.000000 225.000000"
 preserveAspectRatio="xMidYMid meet">

<g transform="translate(0.000000,225.000000) scale(0.100000,-0.100000)"
fill="#000000" stroke="none">
<path d="M535 2243 c-236 -33 -439 -211 -512 -448 -17 -55 -18 -106 -18 -670
0 -564 1 -615 18 -670 65 -209 223 -367 432 -432 55 -17 106 -18 670 -18 682
0 655 -3 800 73 93 49 198 154 247 247 76 145 73 118 73 800 0 564 -1 615 -18
670 -64 207 -217 362 -427 431 -50 17 -105 18 -645 20 -324 1 -603 0 -620 -3z
m1217 -213 c121 -37 222 -130 271 -250 22 -55 22 -56 22 -655 0 -599 0 -600
-22 -655 -49 -120 -150 -213 -271 -250 -61 -19 -94 -20 -627 -20 -533 0 -566
1 -627 20 -121 37 -222 130 -271 250 -22 55 -22 56 -22 655 0 599 0 600 22
655 48 118 150 212 268 250 56 18 97 19 626 19 537 1 570 0 631 -19z"/>
<path d="M1653 1850 c-41 -25 -66 -73 -66 -128 0 -100 115 -171 203 -125 100
52 109 195 17 252 -44 27 -111 28 -154 1z"/>
<path d="M980 1684 c-103 -27 -180 -73 -261 -153 -117 -117 -169 -242 -169
-406 0 -99 15 -165 57 -255 70 -147 234 -277 391 -309 68 -14 186 -14 254 0
204 42 395 233 437 437 14 68 14 186 0 254 -42 201 -216 380 -424 433 -74 19
-212 18 -285 -1z m264 -200 c215 -66 322 -323 220 -528 -114 -230 -429 -280
-607 -97 -147 150 -146 390 2 534 105 103 240 135 385 91z"/>
</g>
</svg>
