<?xml version="1.0" standalone="no"?>
<!DOCTYPE svg PUBLIC "-//W3C//DTD SVG 20010904//EN"
 "http://www.w3.org/TR/2001/REC-SVG-20010904/DTD/svg10.dtd">
<svg version="1.0" xmlns="http://www.w3.org/2000/svg"
 width="283.000000pt" height="178.000000pt" viewBox="0 0 283.000000 178.000000"
 preserveAspectRatio="xMidYMid meet">

<g transform="translate(0.000000,178.000000) scale(0.100000,-0.100000)"
fill="#000000" stroke="none">
<path d="M2307 1452 c-28 -30 -16 -112 15 -112 6 0 4 8 -5 18 -20 22 -22 73
-5 90 19 19 33 14 15 -6 -22 -24 -21 -58 1 -80 17 -17 17 -19 -9 -47 -16 -16
-26 -32 -23 -37 3 -4 -11 -8 -30 -8 -30 0 -36 -4 -36 -20 0 -20 5 -20 128 -18
105 3 127 6 127 18 0 8 -11 16 -25 18 -26 4 -70 38 -70 55 0 5 9 20 20 34 25
33 25 54 -1 87 -25 32 -77 36 -102 8z"/>
<path d="M770 1395 c-17 -20 -9 -29 106 -116 72 -55 97 -69 114 -64 13 4 31 0
46 -10 14 -9 31 -15 38 -13 14 3 -143 141 -216 191 -46 31 -70 34 -88 12z"/>
<path d="M1770 1323 c-25 -2 -117 -14 -205 -28 -88 -13 -196 -28 -240 -32 -44
-4 -67 -9 -52 -11 27 -3 29 -6 25 -43 -3 -35 -2 -38 9 -23 7 10 13 28 13 41 0
13 4 23 9 23 13 0 22 -30 17 -54 -3 -12 2 -4 11 17 19 45 33 48 33 5 0 -36 16
-28 22 11 5 38 28 39 28 1 0 -18 4 -29 10 -25 6 3 10 17 10 31 0 15 6 24 15
24 8 0 15 -9 15 -21 0 -11 5 -17 10 -14 6 3 10 15 10 26 0 23 18 26 26 4 8
-20 24 -19 24 0 0 11 7 14 25 9 15 -4 25 -2 25 4 0 6 8 11 18 11 9 -1 28 3 42
7 58 17 4 -8 -155 -71 -93 -36 -209 -77 -257 -90 -78 -21 -88 -22 -100 -8 -7
8 -12 25 -13 37 0 20 -4 21 -70 16 -38 -3 -117 -5 -175 -5 -58 0 -136 2 -175
5 -66 5 -70 4 -73 -17 -3 -17 3 -24 23 -29 14 -3 29 -4 32 0 4 3 -3 6 -15 6
-11 0 -23 4 -26 9 -3 5 12 4 35 -2 25 -6 36 -13 28 -17 -18 -12 153 -23 224
-16 34 4 86 11 116 17 44 9 56 8 68 -4 14 -13 13 -16 -3 -20 -37 -11 -180 -27
-299 -34 -117 -7 -119 -8 -55 -14 82 -9 326 6 427 26 110 22 168 40 333 100
217 79 274 89 458 82 132 -5 154 -4 159 9 11 30 -20 43 -137 53 -112 11 -156
11 -250 4z"/>
<path d="M1910 1210 c0 -5 4 -10 8 -10 15 0 24 -220 11 -236 -17 -21 -7 -26
39 -18 36 6 40 9 32 25 -6 10 -10 38 -10 63 0 63 21 52 51 -27 22 -56 28 -62
56 -65 l31 -3 -30 63 c-17 35 -37 67 -45 72 -12 7 -11 10 7 20 52 25 52 84 0
111 -32 17 -150 21 -150 5z m119 -24 c7 -8 11 -30 9 -48 -2 -25 -8 -34 -24
-36 -20 -3 -22 2 -25 47 -3 42 -1 51 12 51 9 0 22 -6 28 -14z"/>
<path d="M1762 1193 c-42 -10 -62 -19 -59 -27 3 -7 8 -63 12 -124 6 -84 4
-116 -5 -127 -15 -18 -15 -18 85 4 78 17 80 18 83 49 4 38 -14 42 -29 8 -13
-29 -58 -44 -70 -24 -13 20 -11 96 3 104 6 4 16 0 23 -9 16 -22 25 -11 25 30
0 38 -9 42 -28 13 -21 -34 -32 -22 -32 35 0 55 0 55 30 55 18 0 33 -6 36 -15
10 -25 24 -17 24 15 0 35 -4 35 -98 13z"/>
<path d="M2250 935 l0 -275 105 0 105 0 0 39 0 39 -80 -24 c-45 -14 -90 -22
-100 -19 -20 6 -28 45 -10 45 6 0 10 18 10 41 0 24 -4 38 -10 34 -6 -4 -10 8
-10 29 0 20 5 36 10 36 6 0 10 16 10 36 0 21 -4 33 -10 29 -6 -4 -10 6 -10 24
0 16 5 33 10 36 6 3 10 22 10 41 0 21 -4 33 -10 29 -16 -10 -12 39 7 76 13 25
18 30 21 17 4 -22 1 -22 70 -2 43 13 60 14 74 5 16 -10 18 -8 18 14 l0 25
-105 0 -105 0 0 -275z"/>
<path d="M1522 1119 c-52 -17 -62 -23 -56 -37 3 -9 9 -68 12 -129 3 -87 1
-117 -9 -129 -12 -15 -11 -16 11 -9 51 16 139 65 154 87 32 45 15 98 -30 98
-22 0 -21 1 7 29 28 28 37 64 21 87 -14 22 -48 23 -110 3z m59 -32 c13 -29 -2
-72 -31 -87 -19 -10 -20 -8 -20 43 0 30 3 57 7 60 13 14 34 6 44 -16z m10
-130 c13 -28 -2 -71 -30 -86 -18 -10 -20 -7 -27 34 -3 25 -4 52 0 60 8 23 45
18 57 -8z"/>
<path d="M2380 1110 c-71 -26 -75 -29 -78 -60 -3 -28 -1 -32 15 -28 144 41
143 40 143 81 0 20 -1 36 -2 36 -2 -1 -37 -14 -78 -29z"/>
<path d="M1247 1043 c-22 -3 -27 -8 -22 -21 3 -9 9 -70 12 -134 5 -88 3 -121
-7 -133 -19 -23 -7 -28 39 -15 40 11 51 23 31 35 -5 3 -10 31 -10 61 0 78 21
71 54 -18 18 -50 30 -57 59 -35 15 11 15 16 -8 63 -14 29 -31 54 -40 57 -11 5
-8 13 15 36 32 31 40 77 18 99 -11 11 -81 14 -141 5z m93 -33 c12 -23 5 -56
-18 -82 -25 -30 -32 -21 -32 42 0 53 2 60 20 60 10 0 24 -9 30 -20z"/>
<path d="M1053 1003 c-7 -2 -13 -12 -13 -21 0 -25 -50 -235 -60 -254 -17 -31
-12 -41 17 -33 35 8 38 12 26 27 -7 8 -7 22 -2 36 7 19 15 23 41 20 31 -3 33
-6 31 -37 l-1 -33 40 5 c41 6 61 17 42 24 -7 2 -29 65 -49 138 -36 128 -43
140 -72 128z m25 -182 c-2 -9 -14 -18 -27 -19 -18 -3 -22 0 -18 11 3 9 9 33
13 54 l7 38 14 -34 c8 -18 13 -41 11 -50z"/>
<path d="M2378 981 c-77 -25 -78 -26 -78 -60 0 -27 3 -32 18 -28 144 40 142
39 142 80 0 20 -1 36 -2 35 -2 0 -38 -13 -80 -27z"/>
<path d="M738 978 c16 -16 17 -259 0 -276 -30 -30 102 -27 149 3 50 33 49 105
-1 125 l-25 9 29 30 c36 36 38 64 5 96 -21 22 -33 25 -97 25 -56 0 -69 -3 -60
-12z m110 -20 c27 -27 5 -108 -29 -108 -5 0 -9 27 -9 60 0 61 11 75 38 48z
m11 -160 c20 -35 5 -82 -27 -86 -21 -3 -22 0 -22 58 0 53 2 61 17 58 10 -2 24
-15 32 -30z"/>
<path d="M2378 852 l-78 -26 0 -38 c0 -21 1 -38 3 -38 2 0 35 11 74 24 39 13
74 22 77 18 3 -3 6 16 6 41 0 26 -1 47 -2 46 -2 0 -38 -13 -80 -27z"/>
<path d="M1845 863 c-110 -23 -182 -45 -311 -93 -230 -87 -366 -119 -599 -140
-231 -21 -302 -11 -344 49 -57 79 -168 80 -201 2 -17 -42 -7 -72 41 -122 35
-36 43 -41 53 -28 12 16 108 65 144 72 30 7 132 -18 190 -46 45 -22 52 -23
192 -16 155 9 435 35 485 47 46 10 -68 19 -275 22 l-175 2 124 19 c68 10 127
16 132 14 4 -3 9 -1 11 4 1 4 13 12 26 15 18 6 22 3 23 -16 1 -23 1 -23 8 2 4
15 15 26 28 28 17 3 22 -3 26 -25 4 -28 4 -28 6 3 1 29 15 44 42 44 5 0 10
-17 10 -37 l1 -38 7 35 c9 45 18 60 37 60 12 0 14 -7 9 -30 -3 -16 -2 -37 4
-47 9 -16 10 -15 11 8 0 14 5 40 11 57 10 29 19 34 104 61 132 43 210 53 365
49 129 -3 135 -2 135 17 0 15 -9 21 -40 27 -43 7 -246 9 -280 1z m-1321 -153
c27 -10 42 -32 47 -69 3 -19 -4 -30 -30 -48 -44 -30 -72 -29 -110 3 -45 38
-39 83 14 112 25 14 47 15 79 2z m416 -135 c0 -8 -7 -15 -15 -15 -8 0 -15 7
-15 15 0 8 7 15 15 15 8 0 15 -7 15 -15z"/>
<path d="M1942 778 c-8 -8 -12 -45 -12 -100 0 -76 2 -89 19 -98 30 -16 59 -12
81 10 26 26 29 143 4 178 -17 25 -71 31 -92 10z m63 -98 c0 -68 -2 -75 -20
-75 -17 0 -20 8 -23 54 -4 72 4 103 26 99 14 -3 17 -15 17 -78z"/>
<path d="M1830 740 c0 -22 -4 -40 -10 -40 -5 0 -13 -1 -17 -2 -5 -2 -6 14 -5
35 3 33 1 37 -20 37 -22 0 -23 -3 -25 -100 -1 -99 -1 -100 22 -100 21 0 23 4
22 47 -2 39 1 48 16 51 16 3 18 -2 16 -45 -3 -44 -2 -48 19 -48 22 0 23 3 25
103 2 100 1 102 -20 102 -20 0 -23 -5 -23 -40z"/>
<path d="M2095 675 c0 -102 1 -105 23 -105 19 0 22 5 22 40 0 33 3 40 19 40
42 0 51 11 51 59 0 41 -3 49 -25 59 -14 7 -40 12 -58 12 l-32 0 0 -105z m81
51 c7 -29 -1 -46 -22 -46 -9 0 -14 11 -14 35 0 41 26 49 36 11z"/>
<path d="M1632 730 c-43 -26 -41 -59 6 -79 18 -9 32 -22 32 -32 0 -26 -21 -35
-35 -16 -16 23 -47 22 -43 0 5 -25 51 -39 86 -27 22 8 27 15 27 44 0 30 -5 37
-32 49 -35 16 -43 38 -18 48 22 8 33 -6 15 -17 -13 -9 -13 -10 0 -10 25 0 42
16 38 36 -5 26 -37 28 -76 4z"/>
<path d="M2232 618 c3 -20 8 -23 38 -21 29 2 32 1 17 -8 -18 -10 -18 -12 -1
-30 9 -10 23 -19 30 -19 7 0 18 -9 24 -20 12 -23 30 -27 30 -6 0 7 12 19 28
25 35 15 96 77 87 90 -4 7 -55 11 -131 11 -124 0 -125 0 -122 -22z"/>
<path d="M737 543 c-3 -5 -35 -23 -70 -41 l-66 -34 -51 17 c-98 33 -167 -8
-157 -92 5 -45 -5 -62 -37 -64 -37 -2 24 -17 72 -18 67 -2 106 20 146 83 46
71 80 89 221 111 l40 7 -24 19 c-23 19 -66 26 -74 12z m-202 -83 c10 -11 21
-17 26 -14 4 2 3 -10 -3 -28 -16 -50 -47 -78 -83 -78 -45 0 -68 21 -68 60 0
64 87 105 128 60z"/>
</g>
</svg>
