<?xml version="1.0" standalone="no"?>
<!DOCTYPE svg PUBLIC "-//W3C//DTD SVG 20010904//EN"
 "http://www.w3.org/TR/2001/REC-SVG-20010904/DTD/svg10.dtd">
<svg version="1.0" xmlns="http://www.w3.org/2000/svg"
 width="224.000000pt" height="225.000000pt" viewBox="0 0 224.000000 225.000000"
 preserveAspectRatio="xMidYMid meet">

<g transform="translate(0.000000,225.000000) scale(0.100000,-0.100000)"
fill="#000000" stroke="none">
<path d="M1050 2244 c-378 -45 -672 -229 -852 -534 -196 -330 -204 -742 -22
-1080 l24 -45 -95 -284 c-52 -156 -93 -286 -90 -289 2 -3 114 30 247 73 134
42 267 84 295 92 l53 16 77 -36 c289 -131 633 -128 918 7 128 60 226 130 322
229 95 98 151 178 209 301 192 408 106 903 -213 1225 -160 160 -356 266 -568
306 -77 15 -249 26 -305 19z m285 -200 c230 -52 425 -182 553 -368 119 -172
165 -319 165 -526 0 -175 -39 -318 -127 -465 -100 -168 -285 -322 -466 -388
-120 -43 -173 -51 -325 -51 -133 1 -160 4 -239 28 -50 15 -129 47 -176 72
l-86 44 -169 -54 c-93 -30 -171 -53 -173 -51 -3 2 21 78 52 168 l56 165 -35
53 c-155 236 -181 568 -65 841 169 396 617 627 1035 532z"/>
<path d="M735 1681 c-31 -13 -94 -88 -114 -134 -55 -130 -27 -260 96 -443 139
-206 258 -317 428 -399 247 -119 352 -126 480 -34 50 36 73 78 82 148 5 48 5
50 -28 70 -61 38 -227 121 -241 121 -7 0 -41 -32 -76 -70 -35 -39 -70 -70 -79
-70 -26 0 -147 69 -209 118 -66 54 -138 139 -177 211 l-27 49 50 62 c28 34 50
72 50 85 0 21 -76 235 -95 267 -12 19 -109 32 -140 19z"/>
</g>
</svg>
